HIERARCHY
ROOT pelvis
{
	OFFSET 0.000000 0.000000 0.735437
	CHANNELS 6 Xposition Yposition Zposition Xrotation Yrotation Zrotation
	JOINT spine
	{
		OFFSET 0.000000 0.000000 0.000000
		CHANNELS 6 Xposition Yposition Zposition Xrotation Yrotation Zrotation
		JOINT spine.001
		{
			OFFSET 0.000000 -0.012981 0.247694
			CHANNELS 3 Xrotation Yrotation Zrotation
			JOINT neck
			{
				OFFSET 0.000000 0.030228 0.246185
				CHANNELS 6 Xposition Yposition Zposition Xrotation Yrotation Zrotation
				JOINT face
				{
					OFFSET 0.000000 0.003595 0.205950
					CHANNELS 6 Xposition Yposition Zposition Xrotation Yrotation Zrotation
					End Site
					{
						OFFSET 0.000000 -0.035878 -0.007418
					}
				}
			}
			JOINT shoulder.L
			{
				OFFSET 0.000000 0.030228 0.246185
				CHANNELS 6 Xposition Yposition Zposition Yrotation Xrotation Zrotation
				JOINT upper_arm.L
				{
					OFFSET 0.164369 0.000000 0.000000
					CHANNELS 6 Xposition Yposition Zposition Xrotation Yrotation Zrotation
					JOINT forearm.L
					{
						OFFSET 0.270874 0.000112 0.000932
						CHANNELS 6 Xposition Yposition Zposition Xrotation Yrotation Zrotation
						End Site
						{
							OFFSET 0.225970 -0.003841 -0.001284
						}
					}
				}
			}
			JOINT shoulder.R
			{
				OFFSET 0.000000 0.030228 0.246185
				CHANNELS 6 Xposition Yposition Zposition Yrotation Xrotation Zrotation
				JOINT upper_arm.R
				{
					OFFSET -0.164369 0.000000 0.000000
					CHANNELS 6 Xposition Yposition Zposition Xrotation Yrotation Zrotation
					JOINT forearm.R
					{
						OFFSET -0.271647 0.000112 0.000932
						CHANNELS 6 Xposition Yposition Zposition Xrotation Yrotation Zrotation
						End Site
						{
							OFFSET -0.227330 -0.003865 -0.001284
						}
					}
				}
			}
		}
	}
	JOINT pelvis.L
	{
		OFFSET 0.000000 0.000000 0.000000
		CHANNELS 6 Xposition Yposition Zposition Yrotation Xrotation Zrotation
		End Site
		{
			OFFSET 0.096196 0.000000 0.000000
		}
	}
	JOINT pelvis.R
	{
		OFFSET 0.000000 0.000000 0.000000
		CHANNELS 6 Xposition Yposition Zposition Yrotation Xrotation Zrotation
		End Site
		{
			OFFSET -0.096196 0.000000 0.000000
		}
	}
	JOINT thigh.L
	{
		OFFSET 0.096196 0.000000 0.000000
		CHANNELS 6 Xposition Yposition Zposition Xrotation Yrotation Zrotation
		JOINT shin.L
		{
			OFFSET 0.017791 0.000000 -0.339467
			CHANNELS 6 Xposition Yposition Zposition Xrotation Yrotation Zrotation
			JOINT foot.L
			{
				OFFSET 0.017187 0.000000 -0.327939
				CHANNELS 3 Xrotation Yrotation Zrotation
				End Site
				{
					OFFSET 0.015342 -0.156431 -0.065688
				}
			}
			JOINT heel.02.L
			{
				OFFSET 0.017187 0.000000 -0.327939
				CHANNELS 3 Xrotation Yrotation Zrotation
				End Site
				{
					OFFSET 0.086402 0.033530 -0.062679
				}
			}
		}
	}
	JOINT thigh.R
	{
		OFFSET -0.096196 0.000000 0.000000
		CHANNELS 6 Xposition Yposition Zposition Xrotation Yrotation Zrotation
		JOINT shin.R
		{
			OFFSET -0.017570 0.000000 -0.335251
			CHANNELS 6 Xposition Yposition Zposition Xrotation Yrotation Zrotation
			JOINT foot.R
			{
				OFFSET -0.017334 0.000000 -0.330759
				CHANNELS 3 Xrotation Yrotation Zrotation
				End Site
				{
					OFFSET -0.015919 -0.162309 -0.068156
				}
			}
			JOINT heel.02.R
			{
				OFFSET -0.017334 0.000000 -0.330759
				CHANNELS 3 Xrotation Yrotation Zrotation
				End Site
				{
					OFFSET -0.086249 0.033530 -0.064086
				}
			}
		}
	}
}
MOTION
Frames: 9
Frame Time: 0.041667
0.030993 0.004404 0.719621 -0.000000 0.000000 0.468607 0.000000 0.000000 -0.000000 -9.087144 3.280760 0.434575 9.993089 -0.313305 -2.552451 0.000000 0.030228 0.246185 10.492693 -0.498079 9.637916 -0.000000 0.003595 0.205950 -2.747946 0.000000 0.000000 0.000000 0.030228 0.246185 -1.355479 0.001968 0.166459 0.164369 -0.000000 -0.000000 37.371711 73.623927 -48.596454 0.270874 0.000112 0.000932 -0.309019 -1.332361 -16.389727 0.000000 0.030228 0.246185 -1.304950 0.001825 0.160261 -0.164369 0.000000 0.000000 11.637415 -79.046203 14.111936 -0.271647 0.000112 0.000932 1.318359 -9.283064 15.221734 0.000000 0.000000 0.000000 0.683063 -0.000000 0.000046 0.000000 0.000000 0.000000 0.683063 -0.000000 0.000000 0.096189 0.000000 -0.001147 7.866589 3.883220 0.146078 0.017791 0.000000 -0.339467 -4.886611 0.264421 -0.244999 -7.264360 -2.288860 3.120086 -11.196492 44.768461 36.586731 -0.096189 -0.000000 0.001147 0.199567 1.379586 -0.012853 -0.017570 0.000000 -0.335251 8.473609 7.012041 -0.961894 -9.898017 -2.237549 6.196281 -14.004129 -46.389948 -34.509951 
0.030680 0.004717 0.719806 -0.000000 0.000000 0.380610 0.000000 0.000000 -0.000000 -9.137830 3.395388 0.451297 9.994003 -0.292561 -2.383145 0.000000 0.030228 0.246185 10.614083 -0.806736 9.501236 0.000000 0.003595 0.205950 -2.725094 -0.000000 -0.000001 0.000000 0.030228 0.246185 -1.422785 0.002169 0.174711 0.164369 -0.000000 0.000000 38.219812 73.814394 -49.492258 0.270874 0.000112 0.000932 -0.146620 -0.282684 -17.227673 0.000000 0.030228 0.246185 -1.372215 0.002017 0.168465 -0.164369 0.000000 -0.000000 10.940684 -79.055779 13.270068 -0.271647 0.000112 0.000932 1.326078 -9.142233 15.604684 0.000000 0.000000 -0.000000 0.791564 -0.000000 -0.000039 0.000000 0.000000 -0.000000 0.791564 -0.000000 0.000000 0.096187 -0.000000 -0.001329 7.783676 3.774769 0.151926 0.017791 -0.000000 -0.339467 -4.765917 0.460644 -0.230794 -7.167255 -2.408207 3.386013 -11.294264 44.830097 36.588142 -0.096187 -0.000000 0.001329 0.165201 1.054007 -0.010173 -0.017570 0.000000 -0.335251 8.408569 7.316877 -0.976772 -9.687455 -1.904308 5.540309 -14.104634 -46.548036 -34.822821 
0.030235 0.005192 0.719744 -0.000000 0.000000 0.465149 0.000000 0.000000 -0.000000 -9.064010 3.417104 0.451944 9.995026 -0.265174 -2.160167 0.000000 0.030228 0.246185 10.495556 -0.840336 9.090138 0.000000 0.003595 0.205950 -2.544885 0.000000 0.000000 -0.000000 0.030228 0.246185 -1.412701 0.002137 0.173452 0.164369 -0.000000 -0.000000 38.568384 74.025174 -49.753693 0.270874 0.000112 0.000932 0.040456 0.812143 -18.703351 -0.000000 0.030228 0.246185 -1.362213 0.001989 0.167264 -0.164369 0.000000 -0.000000 10.626533 -79.089458 12.883836 -0.271647 0.000112 0.000932 1.348387 -9.111875 15.960984 0.000000 0.000000 0.000000 0.964263 -0.000000 0.000045 0.000000 0.000000 0.000000 0.964299 -0.000000 0.000000 0.096182 -0.000000 -0.001619 7.750818 3.658873 0.159147 0.017791 0.000000 -0.339467 -4.805465 0.615734 -0.226220 -7.083089 -2.424098 3.441692 -11.248489 44.808893 36.610572 -0.096182 0.000000 0.001619 0.152654 0.808197 -0.009073 -0.017570 0.000000 -0.335251 8.375498 7.468557 -0.983962 -9.434078 -1.560451 4.854119 -14.343156 -46.793039 -35.156783 
0.029933 0.005171 0.719248 -0.000000 0.000000 0.606622 0.000000 0.000000 -0.000000 -8.975842 3.381307 0.444559 9.996217 -0.232805 -1.896189 -0.000000 0.030228 0.246185 10.250349 -0.822760 8.478149 -0.000000 0.003595 0.205950 -2.243679 0.000000 0.000000 -0.000000 0.030228 0.246185 -1.367446 0.002003 0.167881 0.164369 0.000000 -0.000000 38.755627 74.126247 -49.902865 0.270874 0.000112 0.000932 0.288147 2.113403 -19.501676 -0.000000 0.030228 0.246185 -1.316959 0.001857 0.161672 -0.164369 -0.000000 0.000000 10.088422 -78.991322 12.256374 -0.271647 0.000112 0.000932 1.421484 -9.596288 15.913637 0.000000 0.000000 -0.000000 1.114707 -0.000000 0.000012 0.000000 0.000000 -0.000000 1.114743 -0.000000 0.000000 0.096178 -0.000000 -0.001871 7.803105 3.593453 0.164693 0.017791 0.000000 -0.339467 -4.932200 0.667956 -0.229949 -7.079274 -2.396509 3.387433 -11.201754 44.804788 36.686715 -0.096178 -0.000000 0.001871 0.206874 0.674992 -0.012057 -0.017570 0.000000 -0.335251 8.325233 7.513205 -0.981268 -9.257441 -1.259862 4.253735 -14.559757 -46.985387 -35.369906 
0.029825 0.004658 0.718234 -0.000000 0.000000 0.668889 0.000000 0.000000 -0.000000 -8.942336 3.323730 0.435996 9.997216 -0.198881 -1.619773 -0.000000 0.030228 0.246185 10.008502 -0.945164 7.784927 0.000000 0.003595 0.205950 -1.941751 0.000000 0.000003 -0.000000 0.030228 0.246185 -1.324846 0.001878 0.162583 0.164369 0.000000 0.000000 39.008371 74.172269 -50.174870 0.270874 0.000112 0.000932 0.544081 3.528167 -19.030517 -0.000000 0.030228 0.246185 -1.274357 0.001738 0.156400 -0.164369 -0.000000 0.000000 9.220380 -78.749294 11.255603 -0.271647 0.000112 0.000932 1.531476 -10.398988 15.716800 0.000000 0.000000 0.000000 1.173012 -0.000000 0.000044 0.000000 0.000000 0.000000 1.173048 -0.000000 0.000000 0.096176 0.000000 -0.001969 7.908969 3.594533 0.166859 0.017791 0.000000 -0.339467 -5.074022 0.633496 -0.238091 -7.131227 -2.393459 3.366655 -11.221559 44.855198 36.802183 -0.096176 -0.000000 0.001969 0.308026 0.612829 -0.017786 -0.017570 -0.000000 -0.335251 8.229922 7.518461 -0.970371 -9.217975 -1.024952 3.793836 -14.726518 -47.128940 -35.523643 
0.029783 0.004000 0.717168 -0.000000 0.000000 0.635265 -0.000000 0.000000 -0.000000 -8.977621 3.249543 0.427278 9.997990 -0.169229 -1.378276 0.000000 0.030228 0.246185 9.861735 -1.182377 7.118484 0.000000 0.003595 0.205950 -1.767040 -0.000000 0.000000 0.000000 0.030228 0.246185 -1.312288 0.001844 0.161111 0.164369 -0.000000 0.000000 39.421543 74.541235 -50.384806 0.270874 0.000112 0.000932 0.704825 4.607938 -17.923890 0.000000 0.030228 0.246185 -1.261717 0.001705 0.154888 -0.164369 0.000000 -0.000000 8.267630 -78.421958 10.157500 -0.271647 0.000112 0.000932 1.661411 -11.180182 15.794678 -0.000000 -0.000000 -0.000000 1.135231 -0.000001 0.000051 -0.000000 -0.000000 -0.000000 1.135266 -0.000000 0.000000 0.096177 -0.000000 -0.001906 8.038345 3.636085 0.166674 0.017791 -0.000000 -0.339467 -5.250860 0.557479 -0.249879 -7.161232 -2.421933 3.415210 -11.248465 44.905519 36.904489 -0.096177 -0.000000 0.001906 0.506770 0.591179 -0.029165 -0.017570 0.000000 -0.335251 7.929302 7.475201 -0.931829 -9.177022 -0.839775 3.429659 -14.839479 -47.253178 -35.722299 
0.029603 0.003551 0.716610 -0.000000 0.000000 0.632535 0.000000 0.000000 -0.000000 -9.058051 3.157820 0.417466 9.998483 -0.148391 -1.208488 0.000000 0.030228 0.246185 9.867097 -1.402187 6.430557 -0.000000 0.003595 0.205950 -1.779951 -0.000001 0.000002 0.000000 0.030228 0.246185 -1.321431 0.001870 0.162206 0.164369 0.000000 0.000000 39.834572 75.437056 -50.174716 0.270874 0.000112 0.000932 0.771383 5.144446 -17.240156 0.000000 0.030228 0.246185 -1.270901 0.001731 0.156024 -0.164369 0.000000 0.000000 7.613422 -78.058455 9.418562 -0.271647 0.000112 0.000932 1.799874 -11.837644 16.140070 0.000000 -0.000000 -0.000000 1.043550 -0.000000 -0.000012 0.000000 -0.000000 -0.000000 1.043550 -0.000000 0.000000 0.096180 -0.000000 -0.001752 8.158071 3.692431 0.165139 0.017791 -0.000000 -0.339467 -5.473378 0.424036 -0.266849 -7.122013 -2.430048 3.442582 -11.203610 44.894188 36.954745 -0.096180 -0.000000 0.001752 0.949256 0.605833 -0.054754 -0.017570 0.000000 -0.335251 7.140308 7.348044 -0.830968 -8.854137 -0.667041 3.049976 -14.829080 -47.331971 -36.013088 
0.029028 0.003718 0.716433 -0.000000 0.000000 0.751461 -0.000000 -0.000000 0.000000 -9.106527 3.067288 0.406813 9.998658 -0.138726 -1.129739 0.000000 0.030228 0.246185 9.989783 -1.543283 5.572424 -0.000000 0.003595 0.205950 -1.948150 -0.000000 0.000000 -0.000000 0.030228 0.246185 -1.309325 0.001835 0.160681 0.164369 -0.000000 0.000000 39.874542 76.471686 -49.414090 0.270874 0.000112 0.000932 0.835798 5.548888 -17.146391 -0.000000 0.030228 0.246185 -1.258836 0.001696 0.154505 -0.164369 0.000000 0.000000 7.667525 -77.732990 9.539415 -0.271647 0.000112 0.000932 1.912049 -12.319213 16.469712 0.000000 -0.000000 0.000000 0.926165 -0.000000 0.000004 0.000000 -0.000000 0.000000 0.926129 -0.000000 0.000000 0.096184 -0.000000 -0.001555 8.200571 3.742949 0.162376 0.017791 0.000000 -0.339467 -5.654475 0.191436 -0.287150 -7.025038 -2.382659 3.374973 -11.101498 44.847995 37.006972 -0.096184 0.000000 0.001555 1.698018 0.660551 -0.098755 -0.017570 0.000000 -0.335251 5.704327 7.112001 -0.651849 -8.070881 -0.493489 2.594742 -14.628942 -47.340629 -36.438042 
0.027825 0.004760 0.715944 -0.000000 0.000000 0.911261 0.000000 -0.000000 -0.000000 -9.020796 2.972515 0.391974 9.998664 -0.134486 -1.095474 -0.000000 0.030228 0.246185 10.066143 -1.571690 4.622577 -0.000000 0.003595 0.205950 -2.180180 -0.000000 -0.000001 -0.000000 0.030228 0.246185 -1.231313 0.001624 0.151148 0.164369 -0.000000 -0.000000 39.406018 77.186472 -48.312855 0.270874 0.000112 0.000932 0.933840 6.244255 -16.762623 -0.000000 0.030228 0.246185 -1.180785 0.001494 0.144952 -0.164369 0.000000 0.000000 8.728370 -77.530604 10.888787 -0.271647 0.000112 0.000932 1.962303 -12.471784 16.706540 -0.000000 -0.000000 -0.000000 0.798061 -0.000000 0.000024 -0.000000 -0.000000 -0.000000 0.798097 0.000000 -0.000000 0.096187 -0.000000 -0.001340 8.109896 3.773993 0.158369 0.017791 0.000000 -0.339467 -5.681333 -0.138914 -0.304864 -6.919692 -2.312029 3.262585 -11.034820 44.867096 37.190366 -0.096187 -0.000000 0.001340 2.640637 0.767610 -0.156051 -0.017570 -0.000000 -0.335251 3.739185 6.713639 -0.414155 -6.919038 -0.347174 2.119802 -14.236928 -47.287578 -37.021722 
